<?xml version="1.0" encoding="UTF-8"?>
<svg id="fibra" xmlns="http://www.w3.org/2000/svg" xmlns:xlink="http://www.w3.org/1999/xlink" width="50.5925mm" height="51.5247mm" viewBox="0 0 143.4118 146.0543"><defs><mask id="mask" x="0" y="0" width="143.4118" height="146.0543" maskUnits="userSpaceOnUse"><g id="mask-2"><polygon id="path-1" points="0 0 143.412 0 143.412 146.054 0 146.054 0 0" style="fill:#fff"/></g></mask></defs><title>fibra</title><g id="cerchio"><g style="mask:url(#mask)"><path id="Fill-1" d="M71.7059,146.0543c39.6018,0,71.7059-32.6914,71.7059-73.0275S111.3077,0,71.7059,0,0,32.6907,0,73.0268s32.1041,73.0275,71.7059,73.0275" style="fill:#42ab34"/></g></g><path id="Fill-4" d="M55.0344,87.8723V33.8785c0-1.17.0777-1.17,3.3551-1.17H91.0039c1.0927,0,1.3265.1561,1.3265,4.1356v.6244c0,3.8227-.3122,4.291-1.3265,4.291H66.4262V55.96H87.415c1.092,0,1.3265.1561,1.3265,4.1349v.6244c0,3.8234-.3122,4.2917-1.3265,4.2917H66.4262V87.8723c0,.9366-.7021,1.0143-5.306,1.0143h-.9366c-4.9154,0-5.1492,0-5.1492-1.0143" style="fill:#fefefe"/><path id="Fill-6" d="M39.391,121.7115V100.0164c0-.28.28-.3108,1.3055-.3108H53.2223c.3731,0,.4662.0931.4662,1.3993v.217c0,1.2432-.1239,1.4294-.4662,1.4294H43.2144v6.496h8.5162c.3731,0,.4354.0938.4354,1.3986v.1869c0,1.2747-.0931,1.4609-.4354,1.4609H43.2144v9.4178c0,.3423-.2492.3731-1.7717.3731h-.3108c-1.6163,0-1.7409-.0308-1.7409-.3731" style="fill:#fefefe"/><path id="Fill-8" d="M56.0526,121.6808v-15.603c0-.3108.1239-.4039,1.7094-.4039h.1862c1.4924,0,1.6786.0931,1.6786.4039v15.603c0,.2793-.1862.4039-1.6786.4039H57.762c-1.6163,0-1.7094-.1246-1.7094-.4039m-.4977-21.2289a2.3,2.3,0,1,1,2.3,2.3,2.2945,2.2945,0,0,1-2.3-2.3" style="fill:#fefefe"/><path id="Fill-10" d="M73.77,113.6308c0-3.2949-1.1193-5.16-3.6988-5.16a4.0627,4.0627,0,0,0-2.7972.9947c-.56.5908-.5908,1.18-.5908,2.61v6.9006a7.9411,7.9411,0,0,0,2.5179.3731c3.2949,0,4.5689-2.114,4.5689-5.719M63.5441,121.37a.69.69,0,0,1-.4354-.7462V98.8664c0-.3108.1554-.4039,1.7094-.4039h.1869c1.4294,0,1.6779.0931,1.6779.4039v8.1746a5.9561,5.9561,0,0,1,4.29-1.6786c4.2266,0,6.496,3.388,6.496,8.2061,0,5.8121-2.86,8.827-8.2992,8.827a15.3938,15.3938,0,0,1-5.6252-1.0255" style="fill:#fefefe"/><path id="Fill-12" d="M80.081,121.6808v-9.2624c0-2.2071-.0623-4.6-.1554-6.2783-.0315-.3423.0931-.4662,1.554-.4662h.1862c1.3055,0,1.554.0616,1.5855.3416.0623.5593.2177,2.0825.28,3.3257.9632-2.5494,2.4556-3.948,4.382-3.948a2.3852,2.3852,0,0,1,.8393.1246c.3108.1246.3108.28.3108,1.274v.3738c0,1.3055-.1239,1.43-.4354,1.4609a4.6722,4.6722,0,0,0-3.6981,2.051c-.9639,1.3678-1.2747,3.3572-1.2747,6.8383v4.165c0,.3108-.1862.4039-1.6786.4039h-.1554c-1.6471,0-1.74-.0931-1.74-.4039" style="fill:#fefefe"/><path id="Fill-14" d="M100.0361,118.2929a3.8441,3.8441,0,0,0,.6531-2.7041v-5.2843a3.7867,3.7867,0,0,0-3.2018-1.8025c-2.5179,0-3.8542,2.051-3.8542,5.5328,0,2.9218.87,5.3151,3.7611,5.3151a3.3576,3.3576,0,0,0,2.6418-1.057M89.9344,114.19c0-5.6259,3.0772-8.8277,6.9314-8.8277a5.0125,5.0125,0,0,1,4.1335,1.9579l.1246-1.274c.0315-.28.1869-.3724,1.554-.3724h.1869c1.3055,0,1.4609.0924,1.4609.4039,0,.3416,0,.6216-.0315,1.4917-.0308,1.274-.0308,3.0149-.0308,4.5689v2.7041c0,2.5179.0931,4.942.2177,6.776.0308.3731-.0315.4662-1.4609.4662h-.1246c-1.3055,0-1.4917-.0931-1.5848-.3731a7.0548,7.0548,0,0,1-.2177-1.3048,5.8518,5.8518,0,0,1-4.5073,1.9887c-4.2581,0-6.6514-3.2949-6.6514-8.2054" style="fill:#fefefe"/></svg>