<svg viewBox="0 0 762 117.49" xmlns="http://www.w3.org/2000/svg" xmlns:xlink="http://www.w3.org/1999/xlink"><clipPath id="a"><path d="m78 .83-35.44 35a3.3 3.3 0 0 1 -4.72 0l-35.48-35s-2.36-2.33-2.36.98v52.57a8.81 8.81 0 0 0 2.34 5.62l35.48 35.65a3.23 3.23 0 0 0 4.68 0l35.5-35.65a8.8 8.8 0 0 0 2.35-5.66v-52.53s0-1.81-1-1.81a2.24 2.24 0 0 0 -1.35.83"/></clipPath><linearGradient id="b" gradientUnits="userSpaceOnUse" x1="1.37" x2="78.95" y1="78.69" y2="78.69"><stop offset="0" stop-color="#9e2280"/><stop offset=".1" stop-color="#ab2c70"/><stop offset=".35" stop-color="#c7434f"/><stop offset=".59" stop-color="#db5337"/><stop offset=".82" stop-color="#e75d28"/><stop offset="1" stop-color="#eb6023"/></linearGradient><path d="m42.5 40.94a3.25 3.25 0 0 0 -4.69 0l-35.4 35.41a3.24 3.24 0 0 0 0 4.69l35.4 35.41a3.25 3.25 0 0 0 4.69 0l35.41-35.45a3.24 3.24 0 0 0 0-4.69z" fill="#ffe0cc"/><path d="m78 60a8.81 8.81 0 0 0 2.34-5.66v-52.52s0-3.32-2.36-1l-35.44 35a3.3 3.3 0 0 1 -4.72 0l-35.46-34.99s-2.36-2.33-2.36.99v52.56a8.81 8.81 0 0 0 2.34 5.62l35.48 35.65a3.23 3.23 0 0 0 4.68 0z" fill="#ff6400"/><path d="m78 .83-35.44 35a3.3 3.3 0 0 1 -4.72 0l-35.48-35s-2.36-2.33-2.36.98v52.57a8.81 8.81 0 0 0 2.34 5.62l35.48 35.65a3.23 3.23 0 0 0 4.68 0l35.5-35.65a8.8 8.8 0 0 0 2.35-5.66v-52.53s0-1.81-1-1.81a2.24 2.24 0 0 0 -1.35.83" fill="#9f2380"/><g clip-path="url(#a)"><path d="m42.5 40.94a3.25 3.25 0 0 0 -4.69 0l-35.4 35.41a3.24 3.24 0 0 0 0 4.69l35.4 35.41a3.25 3.25 0 0 0 4.69 0l35.41-35.45a3.24 3.24 0 0 0 0-4.69z" fill="url(#b)"/></g><path d="m32.66 88.1s-2.36 0-.69 1.71l6.52 6.52a2.31 2.31 0 0 0 3.34 0l6.17-6.18s2.35-2.34-1-2.29z" fill="#575756"/><path d="m759.18 54.21c0-.79 0-1.58 0-2.37.08-.08.14-.07.2 0v2.32c-.06.11-.13.12-.2.05z" fill="#f18656"/><path d="m620.38 23.12h2.09a.23.23 0 0 1 -.07.34 2.33 2.33 0 0 1 -1.95 0 .25.25 0 0 1 -.07-.34z" fill="#f7b591"/><path d="m728.19 23.31h-1.89c-.07 0-.09-.1-.07-.14s0-.07.08-.07h1.86c.07 0 .1.08.08.12s-.04.09-.06.09z" fill="#f7b490"/><path d="m481.39 23.12h1.86a.22.22 0 0 1 0 .32 2.08 2.08 0 0 1 -1.27.19 1.2 1.2 0 0 1 -.52-.18.24.24 0 0 1 -.07-.33z" fill="#f3ac93"/><path d="m417.13 23.12h1.87a.24.24 0 0 1 -.07.34 1.93 1.93 0 0 1 -1.72 0 .24.24 0 0 1 -.08-.34z" fill="#e4a1a7"/><path d="m728.19 23.31a1.23 1.23 0 0 1 0-.19h1.63a1.34 1.34 0 0 0 0 .2z" fill="#fcdac6"/><path d="m622.49 23.33a.75.75 0 0 1 0-.21h1.63a1.27 1.27 0 0 0 0 .2 1.13 1.13 0 0 1 -1.63.01z" fill="#fcddca"/><path d="m620.38 23.12a1.23 1.23 0 0 1 0 .2 1.12 1.12 0 0 1 -1.63 0c0-.06 0-.13 0-.19z" fill="#fcdac6"/><path d="m483.26 23.32a1.27 1.27 0 0 1 0-.2h1.63a1.34 1.34 0 0 0 0 .2 1.14 1.14 0 0 1 -1.63 0z" fill="#fbd9ca"/><path d="m481.39 23.12v.2a1.13 1.13 0 0 1 -1.62 0 1.48 1.48 0 0 0 0-.21z" fill="#fad7c9"/><path d="m417.13 23.12v.2a.62.62 0 0 1 -.31.24 1.22 1.22 0 0 1 -1.31-.24 1.27 1.27 0 0 0 0-.2z" fill="#f2d3d5"/><path d="m759.37 51.86h-.2c0-.47-.24-1 .2-1.37z" fill="#f7b08a"/><path d="m759.18 54.21h.19v1.39c-.44-.43-.18-.93-.19-1.39z" fill="#f6ae87"/><path d="m726.31 23.12a.74.74 0 0 1 0 .21h-1.4a1.34 1.34 0 0 0 0-.2z" fill="#fcdac6"/><path d="m419 23.33a1.48 1.48 0 0 1 0-.21h1.4a1.34 1.34 0 0 0 0 .2.94.94 0 0 1 -1.4.01z" fill="#f2d1d1"/><path d="m222.32 81.72h-.87c-5.23 0-10.47 0-15.7 0a1.49 1.49 0 0 1 -1.42-.74c-3.08-4.54-6.21-9-9.28-13.59a1.84 1.84 0 0 0 -1.77-1c-2.17.06-4.35.06-6.52 0-.89 0-1.18.2-1.17 1.13.06 4.29 0 8.58 0 12.86 0 1.11-.34 1.33-1.37 1.32q-7-.07-14 0c-.86 0-1.12-.19-1.12-1.08q0-27.63 0-55.26c0-.8.23-1 1-1h25.95a32.43 32.43 0 0 1 12 2.2c8.55 3.44 13.21 10.57 12.9 19.73-.25 7.62-3.66 13.33-10.44 17-.84.45-.55.75-.2 1.26q5.67 8.2 11.32 16.42c.31.16.43.36.69.75z" fill="#b31b71"/><path d="m229 53c0-9.15 0-18.3 0-27.46 0-.94.21-1.22 1.2-1.22q21.42 0 42.83 0c.86 0 1.2.14 1.19 1.11-.07 3.48-.07 7 0 10.43 0 1-.34 1.11-1.19 1.11-8.85 0-17.69 0-26.54 0-1 0-1.33.22-1.29 1.26.08 2.43.06 4.87 0 7.3 0 .83.25 1 1.05 1h23.27c.94 0 1.25.18 1.23 1.18-.07 3.32-.06 6.64 0 10 0 .9-.27 1.09-1.12 1.09-7.72 0-15.44 0-23.16 0-1 0-1.31.27-1.28 1.29.08 2.66.07 5.33 0 8 0 .94.3 1.15 1.19 1.14h27.58c1 0 1.34.21 1.32 1.27-.08 3.39-.07 6.79 0 10.19 0 1-.3 1.21-1.24 1.2q-21.94 0-43.88 0c-.9 0-1.16-.21-1.16-1.13 0-9.34 0-18.54 0-27.76z" fill="#b31b71"/><path d="m593.33 43.31c-.06 4.63.18 10.15-.15 15.67-.4 6.73-2.46 12.79-7.61 17.48a24 24 0 0 1 -12.69 5.83 36.76 36.76 0 0 1 -16.88-.84c-9.48-2.91-14.71-9.53-16.32-19.14a42.26 42.26 0 0 1 -.47-6.93c0-9.92 0-19.85 0-29.78 0-.93.19-1.25 1.19-1.24 4.7.06 9.39.05 14.09 0 .91 0 1.06.29 1.06 1.12q0 15.64 0 31.28a20 20 0 0 0 .69 5c1.44 5.29 5.35 7.93 11.11 7.53 5.48-.38 8.72-3.57 9.57-9.4a27 27 0 0 0 .28-3.92c0-10.12 0-20.24 0-30.36 0-1 .22-1.31 1.27-1.29 4.54.06 9.08.07 13.62 0 1.13 0 1.31.36 1.31 1.37-.1 5.6-.07 11.16-.07 17.62z" fill="#ea5724"/><path d="m110.74 53c0-9.15 0-18.3 0-27.45 0-.95.23-1.22 1.21-1.21h25.48c5.65 0 11.12 1 16 4.06 6.49 4.06 9.39 10.09 9.22 17.58-.23 10.16-6.29 17.21-16.69 19.72a40 40 0 0 1 -9.69 1c-2.71 0-5.43 0-8.14 0-.81 0-1.06.21-1.05 1v12.85c0 .93-.26 1.15-1.17 1.15q-7-.07-14.08 0c-.95 0-1.13-.29-1.13-1.17.05-9.14.04-18.33.04-27.53z" fill="#b31b71"/><path d="m299.16 68.78h1.42 27.46c.92 0 1.25.16 1.23 1.17-.07 3.59 0 7.18 0 10.77 0 .8-.19 1-1 1q-24.72 0-49.45 0c-.8 0-1.07-.2-1.05-1q.08-4 0-8a3.17 3.17 0 0 1 .83-2.29q13.71-16.14 27.37-32.31l.49-.64c-.42-.34-.86-.18-1.26-.18q-12.74 0-25.48 0c-1.06 0-1.28-.28-1.26-1.28.06-3.55.05-7.1 0-10.66 0-.82.26-1 1.06-1q23.73 0 47.47 0c.88 0 1.13.24 1.11 1.11-.06 2.74 0 5.48 0 8.22a2.25 2.25 0 0 1 -.57 1.56q-13.67 16.1-27.29 32.22c-.35.38-.65.77-1.08 1.31z" fill="#b31b71"/><path d="m620.84 23.31h5.38a43.58 43.58 0 0 1 17 4.24c.91.46 1.21.83.73 1.89-1.47 3.27-2.82 6.59-4.15 9.92-.32.78-.55.94-1.37.51a32.17 32.17 0 0 0 -15.81-4 13.29 13.29 0 0 0 -5.62 1.13 4.62 4.62 0 0 0 -2.67 3c-.52 1.92.23 3.45 2.27 4.37a41.19 41.19 0 0 0 8.46 2.44 69.2 69.2 0 0 1 11.07 3c4.78 1.91 8.79 4.77 10.09 10.07 2 8.16-1.29 15.49-9.06 19.57a31.28 31.28 0 0 1 -13.64 3.35 50.29 50.29 0 0 1 -22.55-4c-1.12-.5-2.17-1.18-3.26-1.75-.54-.29-.67-.58-.4-1.19 1.61-3.51 3.17-7 4.72-10.56.28-.64.53-.62 1.09-.28a35.73 35.73 0 0 0 19.25 5.2 15.14 15.14 0 0 0 5.46-.92c1.6-.66 2.79-1.66 2.84-3.57s-1.07-3.06-2.71-3.76a60.05 60.05 0 0 0 -10.28-2.86 65.37 65.37 0 0 1 -8.7-2.47c-5.88-2.25-10.19-5.92-10.85-12.59s1.64-12.13 7.24-16c4.63-3.31 9.94-4.42 15.47-4.74z" fill="#ea5724"/><path d="m671.25 24.38h24.55c.92 0 1.16.25 1.14 1.16-.05 3.59 0 7.18 0 10.77 0 .8-.19 1-1 1-5.08 0-10.17 0-15.25 0-1 0-1.35.25-1.35 1.33v41.81c0 1.06-.27 1.35-1.34 1.34-4.54-.06-9.08-.07-13.61 0-1.11 0-1.42-.24-1.42-1.38q.06-20.79 0-41.58c0-1.49 0-1.49-1.49-1.49-5 0-9.93 0-14.89 0-1.07 0-1.27-.31-1.25-1.29.06-3.51.06-7 0-10.54 0-.95.29-1.14 1.17-1.13 8.3.02 16.49 0 24.74 0z" fill="#ea5724"/><path d="m529.29 81.53c-.26.38-.64.18-.95.18-4.73 0-9.46 0-14.19 0-.82 0-1.13-.13-1.12-1q0-27.66 0-55.33c0-.73.15-1 1-1h14.42c.62 0 1 0 1 .84-.06 3.55 0 7.1-.06 10.65-1.43 3.5-2.43 7.16-3.62 10.74-1.55 4.65-3 9.32-4.55 14q-3 9.19-6 18.39c-.77 2.37-.86 2.24 1.64 2.24h10.93c.48-.02 1.05-.13 1.5.29z" fill="#ea5427"/><path d="m529.29 81.53h-13.84c-1.37 0-1.41 0-1-1.38 1.77-5.38 3.55-10.75 5.28-16.15q3.91-12 7.8-24c.31-.95.56-1.92.9-2.86.17-.48.23-1.08.88-1.25v8.09q0 18.15 0 36.3c.03.4 0 .83-.02 1.25z" fill="#ea5724"/><path d="m352.61 81.67h-6.95a.25.25 0 0 1 .15-.3 1.8 1.8 0 0 0 1.58-1.44q6.89-21.26 13.8-42.5c1.31-4 2.62-8 3.88-12 .13-.44.22-.92.81-1h4c.43.11.35.45.32.75a7.4 7.4 0 0 1 -.39 1.45c-3.26 9.74-6.33 19.53-9.55 29.29-.85 2.59-1.68 5.2-2.58 7.78l-4.15 5.15h2.11c.4.53.06 1-.1 1.52-1 3.18-2 6.38-3.11 9.52a1.75 1.75 0 0 0 .18 1.78z" fill="#b81f6b"/><path d="m435.9 78.05a23.36 23.36 0 0 1 -6.66 3c-.38-.44-.13-.88 0-1.32.88-3.2 2-6.33 3-9.49 3.2-9.76 6.3-19.56 9.55-29.31.5-1.5.9-3 1.45-4.52.17-.43.2-1 .88-1.05a21.52 21.52 0 0 1 3.42 5.81c-1.35 4.51-2.88 9-4.33 13.44-2.36 7.32-4.77 14.61-7.1 21.93a2.86 2.86 0 0 0 -.21 1.51z" fill="#d73a44"/><path d="m339.16 81.67h-.28c-.62-.07-1.24 0-1.86 0-1.15 0-1.29-.18-.95-1.31.46-1.47.91-3 1.41-4.41 1.46-4.32 2.76-8.69 4.26-13a14.23 14.23 0 0 0 .86-3.7c2.79-3.34 5.57-6.69 8.38-10a28.45 28.45 0 0 1 3-3.47c.44.54.07 1-.09 1.53q-2.22 6.88-4.46 13.77c-2.06 6.31-4.09 12.63-6.17 18.94-.54 1.65-.56 1.65-2.26 1.65a16.49 16.49 0 0 0 -1.84 0z" fill="#b51c6e"/><path d="m345.65 37.25h-12c-.4 0-.77 0-.76-.57.07-4.07-.1-8.14.1-12.22a1.47 1.47 0 0 1 .9-.11h14.77c1.25 0 1.48.25 1.09 1.44-1.14 3.45-2.23 6.91-3.37 10.35a2.12 2.12 0 0 1 -.73 1.11z" fill="#b31b71"/><path d="m365.68 24.55q-4.2 12.9-8.39 25.8t-8.39 25.81c-.42 1.28-.86 2.56-1.2 3.86-.29 1.09-.76 1.81-2.05 1.53-1.06.1-1.28-.1-1.14-1.06a5.93 5.93 0 0 1 .25-.89c2.21-6.58 4.29-13.21 6.47-19.8 1.95-5.9 3.75-11.84 5.82-17.69l4-4.86h-4.18a2 2 0 0 1 .13-1.46c1.11-3.37 2.28-6.72 3.31-10.11.16-.53.27-1.16 1-1.28a26 26 0 0 1 4.37.15z" fill="#b71e6d"/><path d="m357.71 63.67c-.38-.38 0-.73.07-1.06 2.21-6.8 4.46-13.59 6.67-20.39 1.9-5.88 3.77-11.78 5.65-17.67a12.72 12.72 0 0 1 3.32-.14c.62 0 .65.43.61.88a8 8 0 0 1 -.46 1.79c-3.11 9.37-6.11 18.78-9.17 28.17a7.61 7.61 0 0 1 -.58 1.26c-1.91 2.49-4.04 4.8-6.11 7.16z" fill="#b9206a"/><path d="m397.57 29.67a20 20 0 0 1 5.13-3.06 15.24 15.24 0 0 1 -1.16 4.2c-2.19 6.67-4.32 13.37-6.52 20-1.6 4.87-3.16 9.77-4.76 14.64-.17.53-.21 1.17-.84 1.45a16.32 16.32 0 0 1 -2.1-5.09c-.13-1.28.55-2.37.92-3.51 2-6.08 3.93-12.17 5.93-18.25 1.08-3.29 2.17-6.58 3.14-9.91a1.64 1.64 0 0 1 .26-.47z" fill="#c3295d"/><path d="m397.57 29.67a4.55 4.55 0 0 1 -.2 1.59q-3.12 9.5-6.2 19c-1 3.15-2 6.31-3 9.45-.24.73-.55 1.44-.83 2.15a27 27 0 0 1 -1.34-10.36 28.2 28.2 0 0 1 11.09-21.5 4.9 4.9 0 0 1 .48-.33z" fill="#c12860"/><path d="m435.9 78.05c-.71-.29-.29-.77-.17-1.16q2.5-7.76 5-15.5c1.88-5.82 3.74-11.65 5.63-17.47a6.94 6.94 0 0 1 1.19-2.71 23.22 23.22 0 0 1 1.87 6.25c-1.34 3.69-2.45 7.45-3.7 11.18-1.73 5.18-3.28 10.43-5.12 15.58a.78.78 0 0 0 0 .34 17 17 0 0 1 -4.7 3.49z" fill="#d93c41"/><path d="m395.25 74.5a8.86 8.86 0 0 1 -2.12-2.2 1.42 1.42 0 0 1 .12-1q2.36-7.2 4.7-14.42 5-15.4 10-30.83a3.91 3.91 0 0 1 .8-1.65 10.7 10.7 0 0 1 2.79-.55c.41.53.08 1-.08 1.52-1.73 5.23-3.41 10.46-5.09 15.7a3.29 3.29 0 0 0 -.28 1.34 37.23 37.23 0 0 1 -1.89 3.44c-.94 2.08-1.07 4.32-1.54 6.5-2.19 6.88-4.46 13.74-6.66 20.65a2.86 2.86 0 0 1 -.75 1.5z" fill="#c62c5a"/><path d="m389.42 66.94c1.94-5.92 3.9-11.84 5.83-17.76q3.39-10.43 6.76-20.86c.19-.58.45-1.14.69-1.71a12.37 12.37 0 0 1 3.3-1.36 6.14 6.14 0 0 1 -.64 2.89q-2.65 8.19-5.32 16.4-3.75 11.49-7.46 23a4.74 4.74 0 0 1 -1.3 2.46 10 10 0 0 1 -1.86-3.06z" fill="#c42a5c"/><path d="m391.28 70c2.17-5.88 3.94-11.89 5.92-17.84 2.68-8.07 5.26-16.16 7.89-24.25.28-.87.57-1.75.86-2.62a11.94 11.94 0 0 1 2.8-.86c-.8 3.09-1.91 6.08-2.89 9.11q-3.94 12.1-7.86 24.21c-1.39 4.28-2.76 8.56-4.16 12.84-.19.58-.46 1.14-.69 1.71a9.1 9.1 0 0 1 -1.87-2.3z" fill="#c52b5b"/><path d="m363.82 56.51c.14-.59.23-1.21.41-1.78q3.21-9.88 6.44-19.76c1-3.15 2-6.31 3-9.45.27-.84 0-1.05-.8-1-.93 0-1.86 0-2.79 0h-9.08l-.1.05h-.1v-.11c.39 0 .77-.08 1.15-.08h19.29c.37 0 .78-.14 1.12.13-.84.58-1.8.29-2.7.29a1.52 1.52 0 0 0 -1.66 1.2c-2.16 6.54-4.23 13.12-6.4 19.66a18.86 18.86 0 0 1 -1 2.83c-2.17 2.75-4.45 5.4-6.78 8.02z" fill="#bb2268"/><path d="m342.6 59.22c.57.93.07 1.8-.2 2.65-1.49 4.62-3 9.22-4.53 13.83-.54 1.65-1 3.31-1.59 5-.25.71 0 .88.65.89a4.43 4.43 0 0 1 1.95.13c-2 0-4 0-6 .06-.61 0-.7-.25-.7-.76 0-3 0-6 0-9a1.21 1.21 0 0 1 .3-.84q5.06-6 10.12-11.96z" fill="#b41d70"/><path d="m361.25 68.82h7.68a1.89 1.89 0 0 1 -.17 1.34c-1 3.19-2 6.4-3.11 9.57-.51 1.48-.5 1.48 1 1.49h2.9 4.31c.34.06.73 0 .85.46h-20.2c.23-.57.76-.46 1.18-.43.89.06 1.3-.34 1.57-1.16 1.09-3.28 2.06-6.61 3.21-9.87a2.43 2.43 0 0 1 .78-1.4z" fill="#bb2367"/><path d="m370.6 48.49a26.15 26.15 0 0 1 1.33-5c2-6 3.92-12 5.84-18 .25-.78.59-1.13 1.45-1.06 1 .09 2.09 0 3.13 0a15.24 15.24 0 0 1 0 3 73.2 73.2 0 0 1 -3.68 11.37q-3.88 4.99-8.07 9.69z" fill="#bb2367"/><path d="m441.27 32.18 1.27 1.3a2.07 2.07 0 0 1 -.17 1.34q-3.28 10.18-6.61 20.38-4 12.49-8.12 25a3.51 3.51 0 0 1 -.73 1.56 2.41 2.41 0 0 1 -1.15.25c-.68.28-.94 0-.93-.68a4.4 4.4 0 0 1 .29-1.12c1.76-5.38 3.48-10.78 5.25-16.15a3.48 3.48 0 0 0 .29-1.35c0-.08 0-.17 0-.23a26.4 26.4 0 0 0 2.57-7.64 17.56 17.56 0 0 0 1.2-3.37c2-5.9 3.84-11.83 5.79-17.74.22-.59.27-1.33 1.05-1.55z" fill="#d43947"/><path d="m403.14 79.73a23.46 23.46 0 0 1 -4.89-2.8 1.63 1.63 0 0 1 .1-1.13q2.36-7.27 4.72-14.55a1.74 1.74 0 0 1 .61-1.08c.44-.06.59.3.75.59a16.55 16.55 0 0 0 3.22 4.35c.28.25.57.54.43 1a6.65 6.65 0 0 0 -.73 1.69c-1 3.53-2.35 7-3.38 10.48-.16.54-.21 1.17-.83 1.45z" fill="#ca2f55"/><path d="m440.58 74.56c-.35-.41-.08-.8.05-1.2q3.47-10.59 6.94-21.19c.42-1.28.81-2.57 1.21-3.86.12-.36.18-.77.66-.85 1.62 9.63-.54 18.22-7.16 25.56a22.69 22.69 0 0 1 -1.7 1.54z" fill="#db3d3e"/><path d="m360.79 24.48.22.06q-2.1 6.36-4.18 12.71h-6.29c-.32-.46-.07-.9.08-1.32 1.19-3.47 2.26-7 3.39-10.47.26-.77.59-1.19 1.47-1.07a14.6 14.6 0 0 0 1.75 0 32.6 32.6 0 0 1 3.56.09z" fill="#b51c6e"/><path d="m357.05 42.11a3.71 3.71 0 0 1 -.2 1.47q-3.57 10.85-7.11 21.7c-1.62 5-3.22 10-4.84 14.91-.24.76-.41 1.41.75 1.36a.49.49 0 0 0 0 .12h-6.5a6.1 6.1 0 0 1 2.29-.13 1.11 1.11 0 0 0 1.28-.86q5.6-17.29 11.28-34.58a1 1 0 0 0 0-.35 36.73 36.73 0 0 1 3.05-3.64z" fill="#b71e6d"/><path d="m403.82 60.21q-2.07 6.23-4.15 12.45c-.47 1.42-.94 2.85-1.42 4.27a15.28 15.28 0 0 1 -3-2.43q1.56-4.94 3.13-9.86 1.74-5.47 3.52-11a3.47 3.47 0 0 1 .55-1.37c.55.65.28 1.43.35 2.15a3 3 0 0 0 .12 1.3c.34 1.18.51 2.4.91 3.56a.89.89 0 0 1 -.01.93z" fill="#c72d58"/><path d="m441.27 32.18a5.8 5.8 0 0 0 -.84 1.88q-3.15 9.77-6.31 19.53c-.15.45-.15 1-.67 1.28a.92.92 0 0 1 -.33-.82 29.18 29.18 0 0 0 -.82-7.05c.76-2.7 1.68-5.36 2.54-8s1.78-5.42 2.65-8.13c.14-.44.14-1 .76-1.17a11.57 11.57 0 0 1 3.02 2.48z" fill="#d43848"/><path d="m361.25 68.82c-1.31 4-2.63 8-3.91 12.06a.78.78 0 0 1 -.87.66 4.54 4.54 0 0 0 -1.94.13h-1.92c-.89-.12-.91-.57-.65-1.34 1.19-3.49 2.32-7 3.47-10.51.1-.32.16-.67.24-1z" fill="#b9206a"/><path d="m357.06 24.48c-2.38.1-2.4.1-3.13 2.34-1.14 3.47-2.26 7-3.39 10.43h-4.89l3.72-11.43c.4-1.23.35-1.31-.95-1.31h-15.48c.18-.2.43-.14.65-.14h22.78a5.43 5.43 0 0 1 .69.09z" fill="#b41d70"/><path d="m430.78 62.72c.57.43.05.86-.06 1.22q-2.72 8.44-5.46 16.86c-.17.53-.57 1.18.5 1.2a17.16 17.16 0 0 1 -4.67.66c-.31-.34-.18-.73-.07-1.09 1.51-4.73 3-9.48 4.64-14.16a2.09 2.09 0 0 1 .7-.75 13 13 0 0 0 3.64-3.38c.15-.28.37-.57.78-.56z" fill="#d43848"/><path d="m403.14 79.73q2.07-6.36 4.16-12.73c.14-.43.17-.94.79-1 1.18.09 1.91 1.05 2.91 1.52.4.19 1 .19 1 .88a35.4 35.4 0 0 0 -2 5.67c-.66 2.09-1.38 4.17-2.07 6.26a1.56 1.56 0 0 1 -.6 1 17 17 0 0 1 -4.19-1.6z" fill="#cc3052"/><path d="m419 23.33h1.4a6.86 6.86 0 0 1 1.91.24 3.33 3.33 0 0 0 -1.12 1.69c-1.1 3.21-2 6.48-3.15 9.67-.27.76-.38 1.35.72 1.42.25 0 .67.13.37.58a1.8 1.8 0 0 1 -1.13.2c-1.77-.18-3.43.47-5.16.59-.84-.31-.5-1-.36-1.46.45-1.64 1-3.23 1.53-4.86.72-2.4 1.61-4.74 2.34-7.14a1.53 1.53 0 0 1 .55-.86l.21-.07z" fill="#c92f55"/><path d="m374.06 81.51h-4.66c-.3-.34-.17-.72-.07-1.09 1-3.58 2.36-7.07 3.41-10.65a1.69 1.69 0 0 1 .62-1h4.88a1.57 1.57 0 0 1 -.14 1.23c-1.16 3.38-2.19 6.8-3.32 10.19a2.39 2.39 0 0 1 -.72 1.32z" fill="#bf2463"/><path d="m426.91 81.75c.85-3.32 2-6.53 3.07-9.79q4.06-12.49 8.14-25 2.2-6.73 4.42-13.47a2.55 2.55 0 0 1 .89 1c.31.42 0 .81-.08 1.21-.93 3.14-2 6.24-3 9.35-3.28 10-6.47 20-9.78 30-.57 1.72-1.1 3.45-1.68 5.17-.16.46-.25 1-.78 1.22z" fill="#d43945"/><path d="m419.22 36.74a.28.28 0 0 0 -.09-.07c-1.88-.38-1.88-.38-1.26-2.26 1.09-3.31 2.18-6.61 3.25-9.93.19-.62.47-1 1.19-.92a12.08 12.08 0 0 1 3.43.52 1.09 1.09 0 0 1 .07 1.09c-1.1 3.74-2.47 7.38-3.57 11.11a1.52 1.52 0 0 1 -.51.89 2.61 2.61 0 0 1 -2.51-.43z" fill="#cc3052"/><path d="m438.25 29.63c-1.69 5.14-3.37 10.29-5.08 15.44a4.94 4.94 0 0 1 -.67 1.69c-1.17-1.12-1.64-2.65-2.35-4a2.83 2.83 0 0 1 .19-1.25c1.31-4.19 2.75-8.35 4.06-12.55.15-.49.16-1.19 1-1.19a9.86 9.86 0 0 1 2.85 1.86z" fill="#d2364a"/><path d="m421.75 37.13c.75-3.18 1.94-6.21 2.91-9.31.39-1.24.73-2.5 1.08-3.74a17.94 17.94 0 0 1 4.19 1.14 6.77 6.77 0 0 1 -.7 3.1c-1.1 3.32-2.13 6.66-3.26 10a1.5 1.5 0 0 1 -.2.4.63.63 0 0 1 -.66 0c-1.06-.72-2.41-.72-3.36-1.59z" fill="#cd3250"/><path d="m373.36 68.82q-1.87 5.9-3.76 11.81c-.09.28-.13.59-.2.88-1.19 0-2.4-.05-3.58 0-1 .07-1-.37-.77-1.07.36-1.09.74-2.17 1.1-3.27.93-2.79 1.85-5.59 2.78-8.39z" fill="#bd2364"/><path d="m407.35 81.28 4-12.15c.12-.36.2-.77.69-.81a5.58 5.58 0 0 1 3.6.87 1.48 1.48 0 0 1 0 1.22c-1.2 3.72-2.32 7.47-3.68 11.13a1.36 1.36 0 0 1 -.37.7 13.67 13.67 0 0 1 -4.24-.96z" fill="#cd3250"/><path d="m426 67.32q-2.35 7.29-4.7 14.56a6.74 6.74 0 0 0 -.16.78h-.89a4.74 4.74 0 0 1 -1.72.09c-1.41 0-1.53-.15-1.09-1.54s.95-2.86 1.39-4.29c.81-2.65 1.72-5.28 2.62-7.9a13.34 13.34 0 0 1 4.55-1.7z" fill="#d2364a"/><path d="m416.9 23.39c-1.31 4.06-2.62 8.11-3.9 12.17-.19.62-.63 1.23-.28 1.94a.39.39 0 0 1 -.27.44 27.89 27.89 0 0 1 -3.83 1.7c-.42-.3-.24-.7-.13-1 1.47-4.74 3-9.45 4.58-14.16a2.18 2.18 0 0 1 .56-.87 6.46 6.46 0 0 1 1.86-.24z" fill="#c82e57"/><path d="m411.54 82.24a8.74 8.74 0 0 1 1-3.5c1.12-2.46 1.53-5.12 2.45-7.63a3.42 3.42 0 0 0 .51-1.85c1.36-.68 2.78-.35 4.19-.22.16.1.38.25.2.43-1 1-1.09 2.44-1.48 3.7-.91 3-2.05 5.82-2.83 8.8a1 1 0 0 1 -.54.7 11.47 11.47 0 0 1 -3.5-.43z" fill="#cf334e"/><path d="m380.79 81.67h-4.38c1.28-4 2.65-7.87 3.85-11.85a1.94 1.94 0 0 1 .55-1c2.83-.15 2.84-.15 2.83 2.65 0 .42 0 .84-.05 1.25-.95 2.98-2.03 5.92-2.8 8.95z" fill="#c12860"/><path d="m435.38 27.72c-.57.34-.59 1-.77 1.49-1.35 4.16-2.68 8.33-4 12.48a3 3 0 0 0 -.19 1.13 6.08 6.08 0 0 1 -2.71-2.91c1.42-4.18 2.72-8.39 4.13-12.57.15-.44.22-1 .92-1a13.46 13.46 0 0 1 2.62 1.38z" fill="#d0354c"/><path d="m432.74 26.36c-.53.21-.53.74-.67 1.15-1.2 3.61-2.36 7.23-3.55 10.85-.19.58-.46 1.14-.69 1.71a2.43 2.43 0 0 1 -2.09-1.43 12.68 12.68 0 0 1 1-3.58c1-3.31 2.13-6.56 3.21-9.84a9.83 9.83 0 0 1 2.79 1.14z" fill="#cf334e"/><path d="m428.08 81.47q2.54-7.73 5.08-15.47 3.52-10.76 7-21.52 1.62-5 3.23-10a2.14 2.14 0 0 1 .72.91 14.26 14.26 0 0 0 -1.47 3.85c-1.67 5-3.3 10.09-4.94 15.14q-3.93 12.12-7.87 24.25c-.26.8-.42 1.63-.63 2.45a2.84 2.84 0 0 1 -1.12.39z" fill="#d53945"/><path d="m380.81 68.82a46.38 46.38 0 0 1 -1.55 5.18c-.72 2.19-1.43 4.37-2.12 6.57a1.8 1.8 0 0 1 -.73 1.12h-1.68l-.67-.16c1.38-4.23 2.64-8.51 4.18-12.69z" fill="#c02661"/><path d="m413.63 23.56c-1.44 4.43-2.89 8.85-4.31 13.28a7 7 0 0 0 -.63 2.74c.06.06.11.15.08.19a9.94 9.94 0 0 1 -2.86 2.58c-.42-.42 0-.81.09-1.17q2.65-8.24 5.34-16.45c.09-.29.13-.6.2-.89a5.12 5.12 0 0 1 2.09-.28z" fill="#c72d59"/><path d="m415 82.67c1.31-4.19 2.67-8.38 3.91-12.6.19-.65.7-.48 1-.78a1.2 1.2 0 0 1 1.63-.25 25.74 25.74 0 0 1 -1.46 4.96c-.79 2.6-1.65 5.19-2.53 7.76-.25.75-.08 1 .68 1s1.31 0 2 0a18.58 18.58 0 0 1 -5.23-.09z" fill="#d0354c"/><path d="m496.87 51.87h8.38c.4.47.18 1 0 1.43-1.15 3.88-2.48 7.7-3.73 11.55-1.43 4.4-2.8 8.82-4.31 13.19a7 7 0 0 0 -.56 2.58 35.86 35.86 0 0 1 -11 2c-.37-.67 0-1.28.21-1.87 1.15-3.44 2.16-6.93 3.37-10.35a2.27 2.27 0 0 0 .11-1.68l3.25-1.16c.38-1.08.06-2.19.16-3.28a3.78 3.78 0 0 1 .13-1.25c1.43-3.26 2.08-6.77 3.41-10.07a3.05 3.05 0 0 1 .58-1.09z" fill="#e9502a"/><path d="m489.39 68.77c.9.07.56.64.42 1.08-1.17 3.58-2.35 7.15-3.51 10.73-.23.69-.4 1.39-.6 2.09a34.12 34.12 0 0 1 -12.36-1.08 1.29 1.29 0 0 1 0-1.22c1.12-3.83 2.52-7.56 3.66-11.39.08-.29.09-.74.61-.67a22.08 22.08 0 0 0 11.78.46z" fill="#e94b2c"/><path d="m498.72 42.52c-.42.73-.78.43-1.22 0a17.9 17.9 0 0 0 -8.17-5c-.58-.17-1.17-.32-1.76-.48a1.19 1.19 0 0 1 .1-.89c1.21-3.47 2.24-7 3.44-10.46.19-.56.21-1.37 1.14-1.36a28.37 28.37 0 0 1 9.63 3.67c.36.22.7.48 1 .73a.78.78 0 0 1 .11.87c-1.47 4.3-2.64 8.69-4.27 12.92z" fill="#e94b2c"/><path d="m456.3 69.73a16.78 16.78 0 0 1 -2.56-4.63c3.64-10.47 6.9-21 10.36-31.58.66-2 1.26-4 2-6a20.64 20.64 0 0 1 4.9-2.23c.42.59 0 1.12-.13 1.65q-2.08 6.51-4.22 13c-3.11 9.47-6.13 19-9.28 28.43-.15.54-.1 1.38-1.07 1.36z" fill="#df4139"/><path d="m496.69 80.62c-.7-.08-.37-.52-.27-.85.37-1.21.74-2.42 1.14-3.62 2.18-6.69 4.39-13.37 6.53-20.08a17.93 17.93 0 0 0 1.16-4.2c1.9-.13 1.9-.13 1.9 1.69v21a1.73 1.73 0 0 1 -.87 1.69 36 36 0 0 1 -9.59 4.37z" fill="#ea5327"/><path d="m466.13 27.5a3.74 3.74 0 0 1 -.2 1.48q-3.24 9.87-6.47 19.75-2.46 7.53-4.89 15.05c-.16.51-.25 1.07-.83 1.32a21 21 0 0 1 -2-7c2.69-8.17 5.31-16.38 8-24.56a7.39 7.39 0 0 1 .59-1.87 21.29 21.29 0 0 1 5.8-4.17z" fill="#dd403b"/><path d="m467.73 52.33a18.56 18.56 0 0 0 2.81 10.43 36.84 36.84 0 0 0 -2.44 6.73c-.84 2.61-1.75 5.2-2.57 7.81-.09.3-.18.6-.54.7a20.74 20.74 0 0 1 -4.7-3.58 1.29 1.29 0 0 1 0-1c2.09-6.54 4.25-13.05 6.36-19.58.22-.58.28-1.32 1.08-1.51z" fill="#e34535"/><path d="m467.73 52.33a12.44 12.44 0 0 0 -1.43 3.67c-1.65 5-3.3 10-4.91 15-.36 1.13-.73 2.26-1.1 3.38a7.3 7.3 0 0 1 -1.62-1.66 1.82 1.82 0 0 1 .2-1.23c4.2-12.6 8.22-25.25 12.35-37.88 1-3 2.12-6 2.87-9a.8.8 0 0 1 .2-.29 8.65 8.65 0 0 1 2.56-.48c.31.41.08.81-.05 1.2-1.69 5.23-3.37 10.46-5.08 15.69a9.59 9.59 0 0 0 -.66 1.71 17.71 17.71 0 0 0 -3.33 9.89z" fill="#e14237"/><path d="m471.06 42.44a3.24 3.24 0 0 1 .31-1.68q2.75-8.46 5.48-16.92a19.52 19.52 0 0 1 3.95-.51h1.62l.48.07c.46.56.14 1.11 0 1.64-1.16 3.4-2.15 6.85-3.34 10.24a11 11 0 0 0 -.52 2 18.57 18.57 0 0 0 -7.15 4.21 8.05 8.05 0 0 0 -.83.95z" fill="#e34535"/><path d="m456.3 69.73c.51-.15.54-.63.67-1l4.35-13.27 4.92-15.13q2.36-7.24 4.7-14.48a3.56 3.56 0 0 0 .09-.57 6.33 6.33 0 0 1 1.86-.55c.51.58.2 1.18 0 1.75-1.48 4.75-3.07 9.47-4.6 14.2-3.17 9.84-6.39 19.67-9.59 29.5-.17.54-.09 1.39-1 1.43a6.53 6.53 0 0 1 -1.4-1.88z" fill="#e14237"/><path d="m460.32 31.68a5 5 0 0 1 -.21 1.71q-3.14 9.53-6.25 19.07c-.49 1.5-.95 3-1.43 4.51a1.65 1.65 0 0 1 -.7 1.14 29.43 29.43 0 0 1 4.18-21.26 21 21 0 0 1 4.41-5.17z" fill="#db3d3e"/><path d="m477.57 68.31c-1.4 4.43-3.08 8.77-4.23 13.28a23.55 23.55 0 0 1 -4.65-1.59c-.29-.42-.08-.82 0-1.21 1.16-3.86 2.53-7.65 3.72-11.51.16-.52.12-1.39 1.12-1.22a30.48 30.48 0 0 0 4.04 2.25z" fill="#e64830"/><path d="m492.25 24.27c-.52.24-.62.74-.78 1.21q-1.68 5.11-3.37 10.24c-.14.43-.35.84-.53 1.26l-2.12-.25a9.26 9.26 0 0 0 -2 0c-.63 0-.83-.28-.74-.85a3.28 3.28 0 0 1 .14-.56c1.24-3.53 2.28-7.12 3.49-10.66.28-.82.66-1.42 1.67-1a14 14 0 0 1 4.24.61z" fill="#e64830"/><path d="m473.57 66c-.5 0-.56.46-.68.82l-4.2 13.18a19.5 19.5 0 0 1 -3.7-2q2.31-7.05 4.61-14.08c.17-.5.23-1.09.94-1.16a24.51 24.51 0 0 0 3.03 3.24z" fill="#e54732"/><path d="m488 23.58c-.74-.09-1.09.23-1.32.94q-1.74 5.51-3.59 11c-.33 1 0 1.15.85 1.1a2.14 2.14 0 0 1 1.47.15 30.43 30.43 0 0 0 -6.46.55c-.57-.44-.16-.93 0-1.36 1.21-3.73 2.45-7.46 3.67-11.18a3 3 0 0 0 .26-1.35l1.42-.07h1.62a7.8 7.8 0 0 1 2.08.22z" fill="#e64731"/><path d="m498.72 42.52c-.22-.44 0-.81.18-1.2l3.84-11.79a5.06 5.06 0 0 0 .18-.77 25.13 25.13 0 0 1 5.15 4.44c.37.4.4.64 0 1-3.14 2.8-6.24 5.55-9.35 8.32z" fill="#e9502b"/><path d="m474.29 24.32a4.71 4.71 0 0 1 -.3 1.93q-3.58 10.92-7.16 21.84-3.75 11.47-7.46 23c-.19.58-.46 1.14-.7 1.71l-.67-.8c1.68-4.26 2.92-8.66 4.34-13q3.72-11.34 7.37-22.7c1.2-3.77 2.55-7.49 3.61-11.31a1.24 1.24 0 0 1 .28-.5z" fill="#e14237"/><path d="m496.87 51.87a2.92 2.92 0 0 1 -.19 1.13c-.92 2.8-1.71 5.65-2.78 8.39a11.83 11.83 0 0 0 -1 5.52c0 .27 0 .55-.27.7 0-2.81.06-5.62.08-8.43 0-2.15 0-4.31 0-6.47 0-.72.23-.94.93-.9 1.07.06 2.15.05 3.23.06z" fill="#e94e2c"/><path d="m473.59 24.52a4.16 4.16 0 0 1 -.33 1.81q-3.58 10.92-7.15 21.84-3.62 11.09-7.21 22.18c-.2.6-.24 1.32-.91 1.68-.25 0-.25-.26-.31-.43 1-1.36 1.25-3 1.77-4.59 1.69-5 3.3-10.08 4.94-15.13 2.62-8.08 5.26-16.16 7.86-24.25a7.09 7.09 0 0 0 .64-2.91.81.81 0 0 1 .7-.2z" fill="#e14237"/><path d="m380.79 81.67a1.12 1.12 0 0 1 -.1-1.08c.76-2.32 1.49-4.64 2.25-7a1.35 1.35 0 0 1 .65-.91c0 2.74 0 5.47.06 8.2 0 .58-.14.86-.77.81s-1.39 0-2.09-.02z" fill="#c2295e"/><path d="m378.72 38.9c.81-3.12 1.9-6.15 2.88-9.22.23-.73.53-1.43.8-2.15q0 3.24 0 6.49a1.29 1.29 0 0 1 -.31.95c-1.09 1.3-2.23 2.62-3.37 3.93z" fill="#bd2465"/><path d="m357.06 24.48a15.52 15.52 0 0 1 3.73 0z" fill="#b71e6d"/><path d="m762 56a10 10 0 0 0 -.56 2.76c-2.24 10.7-8.55 18.11-18.77 21.77-11.35 4.08-22.51 3.27-32.57-3.76-9.14-6.38-12.84-15.56-12-26.53 1.14-14.69 12.72-25.07 27-26.71.81-.1 1.62-.16 2.43-.24a5.12 5.12 0 0 1 1.41-.08h3.35c11.79.34 20.67 5.62 26.56 15.75a21.43 21.43 0 0 1 3 10.82.56.56 0 0 0 .12.43v.23c-.24.48-.06 1-.12 1.48v2.13c.06.49-.12 1 .12 1.49z" fill="#ea5724"/><g fill="#fff"><path d="m731.37 69.35c-9.87 0-16.45-6.31-16.87-14.81-.23-4.76.71-9.17 4-12.79 4.27-4.69 9.67-6 15.66-4.45s9.48 5.58 10.79 11.4.41 11.3-3.75 15.89a13.9 13.9 0 0 1 -9.83 4.76z"/><path d="m185.62 45.49v-7.41c0-.42-.09-.88.6-.86 3.79.12 7.6-.31 11.37.26a8.19 8.19 0 0 1 6.17 12.2c-1.34 2.57-3.69 3.67-6.41 4-3.67.47-7.36.11-11 .21-.71 0-.7-.4-.7-.89q-.02-3.74-.03-7.51z"/><path d="m127.08 45.58v-7.52c0-.44 0-.86.62-.84 3.75.12 7.52-.29 11.26.24 7.11 1 8.18 7.25 6.57 11.55-1.12 3-3.65 4.29-6.66 4.68-3.7.49-7.43.12-11.14.22-.76 0-.65-.47-.65-.93z"/><path d="m421.55 69-1.63.25h-4.42l-3.5-.94a29 29 0 0 1 -3.91-2.31 18.64 18.64 0 0 1 -4.27-5.78 26 26 0 0 1 -1.18-4.42c-.16-.37.08-.81-.17-1.17 0-.76 0-1.53 0-2.3a18 18 0 0 1 3.46-10l2.78-2.77c1.2-1 2.72-1.34 4-2.08a21.32 21.32 0 0 1 6.5-.76l2.53.39a23.39 23.39 0 0 1 4 1.51l2.09 1.43 2.57 2.75a32.31 32.31 0 0 1 2.1 3.94 23.69 23.69 0 0 1 .95 8.11 19.1 19.1 0 0 1 -2.67 7.85 17.78 17.78 0 0 1 -4.83 4.6 24.49 24.49 0 0 1 -4.4 1.7z"/></g><path d="m402.47 54.62a2.14 2.14 0 0 1 .17 1.17c-.31-.35-.13-.79-.17-1.17z" fill="#c62c5a"/></svg>